<svg id="visual" viewBox="0 0 900 600" width="900" height="600" xmlns="http://www.w3.org/2000/svg" xmlns:xlink="http://www.w3.org/1999/xlink" version="1.1"><path d="M0 122L21.5 122C43 122 86 122 128.8 119.5C171.7 117 214.3 112 257.2 113.7C300 115.3 343 123.7 385.8 129.5C428.7 135.3 471.3 138.7 514.2 135.7C557 132.7 600 123.3 642.8 123.7C685.7 124 728.3 134 771.2 133C814 132 857 120 878.5 114L900 108L900 0L878.5 0C857 0 814 0 771.2 0C728.3 0 685.7 0 642.8 0C600 0 557 0 514.2 0C471.3 0 428.7 0 385.8 0C343 0 300 0 257.2 0C214.3 0 171.7 0 128.8 0C86 0 43 0 21.5 0L0 0Z" fill="#fa7268"></path><path d="M0 104L21.5 100.5C43 97 86 90 128.8 85.5C171.7 81 214.3 79 257.2 84.7C300 90.3 343 103.7 385.8 109C428.7 114.3 471.3 111.7 514.2 106.7C557 101.7 600 94.3 642.8 90.7C685.7 87 728.3 87 771.2 89.3C814 91.7 857 96.3 878.5 98.7L900 101L900 0L878.5 0C857 0 814 0 771.2 0C728.3 0 685.7 0 642.8 0C600 0 557 0 514.2 0C471.3 0 428.7 0 385.8 0C343 0 300 0 257.2 0C214.3 0 171.7 0 128.8 0C86 0 43 0 21.5 0L0 0Z" fill="#f16367"></path><path d="M0 80L21.5 82C43 84 86 88 128.8 88.3C171.7 88.7 214.3 85.3 257.2 80.3C300 75.3 343 68.7 385.8 66.8C428.7 65 471.3 68 514.2 73.7C557 79.3 600 87.7 642.8 87C685.7 86.3 728.3 76.7 771.2 72.5C814 68.3 857 69.7 878.5 70.3L900 71L900 0L878.5 0C857 0 814 0 771.2 0C728.3 0 685.7 0 642.8 0C600 0 557 0 514.2 0C471.3 0 428.7 0 385.8 0C343 0 300 0 257.2 0C214.3 0 171.7 0 128.8 0C86 0 43 0 21.5 0L0 0Z" fill="#e85467"></path><path d="M0 50L21.5 49.3C43 48.7 86 47.3 128.8 47.3C171.7 47.3 214.3 48.7 257.2 52.2C300 55.7 343 61.3 385.8 61C428.7 60.7 471.3 54.3 514.2 51C557 47.7 600 47.3 642.8 48.3C685.7 49.3 728.3 51.7 771.2 56.5C814 61.3 857 68.7 878.5 72.3L900 76L900 0L878.5 0C857 0 814 0 771.2 0C728.3 0 685.7 0 642.8 0C600 0 557 0 514.2 0C471.3 0 428.7 0 385.8 0C343 0 300 0 257.2 0C214.3 0 171.7 0 128.8 0C86 0 43 0 21.5 0L0 0Z" fill="#de4467"></path><path d="M0 57L21.5 53.5C43 50 86 43 128.8 38.3C171.7 33.7 214.3 31.3 257.2 32.5C300 33.7 343 38.3 385.8 40C428.7 41.7 471.3 40.3 514.2 41.2C557 42 600 45 642.8 45C685.7 45 728.3 42 771.2 41.3C814 40.7 857 42.3 878.5 43.2L900 44L900 0L878.5 0C857 0 814 0 771.2 0C728.3 0 685.7 0 642.8 0C600 0 557 0 514.2 0C471.3 0 428.7 0 385.8 0C343 0 300 0 257.2 0C214.3 0 171.7 0 128.8 0C86 0 43 0 21.5 0L0 0Z" fill="#d23467"></path><path d="M0 24L21.5 25.8C43 27.7 86 31.3 128.8 33.2C171.7 35 214.3 35 257.2 33.2C300 31.3 343 27.7 385.8 26.8C428.7 26 471.3 28 514.2 26.8C557 25.7 600 21.3 642.8 22.5C685.7 23.7 728.3 30.3 771.2 30.2C814 30 857 23 878.5 19.5L900 16L900 0L878.5 0C857 0 814 0 771.2 0C728.3 0 685.7 0 642.8 0C600 0 557 0 514.2 0C471.3 0 428.7 0 385.8 0C343 0 300 0 257.2 0C214.3 0 171.7 0 128.8 0C86 0 43 0 21.5 0L0 0Z" fill="#c62368"></path></svg>