<svg id="visual" viewBox="0 0 900 600" width="900" height="600" xmlns="http://www.w3.org/2000/svg" xmlns:xlink="http://www.w3.org/1999/xlink" version="1.1"><path d="M0 104L21.5 101.2C43 98.3 86 92.7 128.8 100.8C171.7 109 214.3 131 257.2 146.3C300 161.7 343 170.3 385.8 161.2C428.7 152 471.3 125 514.2 111.8C557 98.7 600 99.3 642.8 106.3C685.7 113.3 728.3 126.7 771.2 135.7C814 144.7 857 149.3 878.5 151.7L900 154L900 0L878.5 0C857 0 814 0 771.2 0C728.3 0 685.7 0 642.8 0C600 0 557 0 514.2 0C471.3 0 428.7 0 385.8 0C343 0 300 0 257.2 0C214.3 0 171.7 0 128.8 0C86 0 43 0 21.5 0L0 0Z" fill="#FF9472" stroke-linecap="round" stroke-linejoin="miter"></path></svg>