<svg id="visual" viewBox="0 0 900 600" width="900" height="600" xmlns="http://www.w3.org/2000/svg" xmlns:xlink="http://www.w3.org/1999/xlink" version="1.1"><path d="M0 109L21.5 99.3C43 89.7 86 70.3 128.8 70.2C171.7 70 214.3 89 257.2 101.8C300 114.7 343 121.3 385.8 125.5C428.7 129.7 471.3 131.3 514.2 120.8C557 110.3 600 87.7 642.8 71.2C685.7 54.7 728.3 44.3 771.2 43.8C814 43.3 857 52.7 878.5 57.3L900 62L900 0L878.5 0C857 0 814 0 771.2 0C728.3 0 685.7 0 642.8 0C600 0 557 0 514.2 0C471.3 0 428.7 0 385.8 0C343 0 300 0 257.2 0C214.3 0 171.7 0 128.8 0C86 0 43 0 21.5 0L0 0Z" fill="#FF9472" stroke-linecap="round" stroke-linejoin="miter"></path></svg>