<svg id="visual" viewBox="0 0 900 600" width="900" height="600" xmlns="http://www.w3.org/2000/svg" xmlns:xlink="http://www.w3.org/1999/xlink" version="1.1"><path d="M0 72L21.5 71.5C43 71 86 70 128.8 64.7C171.7 59.3 214.3 49.7 257.2 48.2C300 46.7 343 53.3 385.8 64.3C428.7 75.3 471.3 90.7 514.2 83.2C557 75.7 600 45.3 642.8 45C685.7 44.7 728.3 74.3 771.2 86.8C814 99.3 857 94.7 878.5 92.3L900 90L900 0L878.5 0C857 0 814 0 771.2 0C728.3 0 685.7 0 642.8 0C600 0 557 0 514.2 0C471.3 0 428.7 0 385.8 0C343 0 300 0 257.2 0C214.3 0 171.7 0 128.8 0C86 0 43 0 21.5 0L0 0Z" fill="#FF9472" stroke-linecap="round" stroke-linejoin="miter"></path></svg>