<svg id="visual" viewBox="0 0 900 600" width="900" height="600" xmlns="http://www.w3.org/2000/svg" xmlns:xlink="http://www.w3.org/1999/xlink" version="1.1"><path d="M0 131L21.5 127.3C43 123.7 86 116.3 128.8 126.3C171.7 136.3 214.3 163.7 257.2 182.8C300 202 343 213 385.8 201.7C428.7 190.3 471.3 156.7 514.2 140.3C557 124 600 125 642.8 133.7C685.7 142.3 728.3 158.7 771.2 169.7C814 180.7 857 186.3 878.5 189.2L900 192L900 0L878.5 0C857 0 814 0 771.2 0C728.3 0 685.7 0 642.8 0C600 0 557 0 514.2 0C471.3 0 428.7 0 385.8 0C343 0 300 0 257.2 0C214.3 0 171.7 0 128.8 0C86 0 43 0 21.5 0L0 0Z" fill="#FF9472" stroke-linecap="round" stroke-linejoin="miter"></path></svg>